<?xml version="1.0" encoding="utf-8" ?>
<svg baseProfile="full" height="2500px" version="1.1" width="1900px" xmlns="http://www.w3.org/2000/svg" xmlns:ev="http://www.w3.org/2001/xml-events" xmlns:xlink="http://www.w3.org/1999/xlink"><defs /><text x="50" y="30">Temperature Humidity Pressure Sensor</text><text style="font-size:18px;" x="50" y="60">Temperature Readings </text><image height="92" preserveAspectRatio="xMinYMin meet" width="287" x="50" xlink:href="di_sensors/temp3.gif" y="70" /><text style="font-size:18px;" x="370" y="60"> Pressure Reading</text><image height="68" preserveAspectRatio="xMinYMin meet" width="272" x="370" xlink:href="di_sensors/pressure2.gif" y="70" /><text style="font-size:18px;" x="690" y="60">Humidity Reading</text><image height="68" preserveAspectRatio="xMinYMin meet" width="269" x="690" xlink:href="di_sensors/humidity2.gif" y="70" /><text style="font-size:18px;" x="1010" y="60">All THP Readings</text><image height="164" preserveAspectRatio="xMinYMin meet" width="287" x="1010" xlink:href="di_sensors/thp2.gif" y="70" /><rect fill="white" height="214" opacity="0.1" rx="30" stroke="black" stroke-width="1" width="1330" x="10" y="30" /><text x="50" y="274">Line Follower</text><text style="font-size:18px;" x="50" y="304">Line Follower Position</text><image height="127" preserveAspectRatio="xMinYMin meet" width="208" x="50" xlink:href="di_sensors/line_word2.gif" y="314" /><text style="font-size:18px;" x="370" y="304">Line Follower Values</text><image height="160" preserveAspectRatio="xMinYMin meet" width="208" x="370" xlink:href="di_sensors/line_number2.gif" y="314" /><text style="font-size:18px;" x="690" y="304">Line Follower BW</text><image height="105" preserveAspectRatio="xMinYMin meet" width="211" x="690" xlink:href="di_sensors/line_bw.gif" y="314" /><text style="font-size:18px;" x="1010" y="304">Individual Sensor</text><image height="105" preserveAspectRatio="xMinYMin meet" width="198" x="1010" xlink:href="di_sensors/line_raw_sensor.gif" y="314" /><rect fill="white" height="210" opacity="0.1" rx="30" stroke="black" stroke-width="1" width="1330" x="10" y="274" /><text x="50" y="514">Light &amp; Color</text><text style="font-size:18px;" x="50" y="544">Light</text><image height="68" preserveAspectRatio="xMinYMin meet" width="158" x="50" xlink:href="di_sensors/light_reading.gif" y="554" /><text style="font-size:18px;" x="370" y="544">Color</text><image height="68" preserveAspectRatio="xMinYMin meet" width="161" x="370" xlink:href="di_sensors/color_name.gif" y="554" /><text style="font-size:18px;" x="690" y="544">RGB readings</text><image height="116" preserveAspectRatio="xMinYMin meet" width="253" x="690" xlink:href="di_sensors/rgb.gif" y="554" /><rect fill="white" height="166" opacity="0.1" rx="30" stroke="black" stroke-width="1" width="1010" x="10" y="514" /></svg>