<?xml version="1.0" encoding="utf-8" ?>
<svg baseProfile="full" height="1900px" version="1.1" width="1900px" xmlns="http://www.w3.org/2000/svg" xmlns:ev="http://www.w3.org/2001/xml-events" xmlns:xlink="http://www.w3.org/1999/xlink"><defs /><text x="50" y="30">GoPiGo Commands</text><text x="50" y="60">Move the GoPiGo Forward</text><image height="60" preserveAspectRatio="xMinYMin meet" width="167" x="50" xlink:href="gopigo/forward.gif" y="70" /><image height="27" preserveAspectRatio="xMinYMin meet" width="179" x="50" xlink:href="gopigo/forwardX.gif" y="140" /><text x="50" y="207">Stop the GoPiGo</text><image height="24" preserveAspectRatio="xMinYMin meet" width="114" x="50" xlink:href="gopigo/stop.gif" y="217" /><text x="280" y="60">Move the GoPiGo Back</text><image height="60" preserveAspectRatio="xMinYMin meet" width="167" x="280" xlink:href="gopigo/backward.gif" y="70" /><image height="27" preserveAspectRatio="xMinYMin meet" width="193" x="280" xlink:href="gopigo/backwardX.gif" y="140" /><text x="510" y="60">Set GoPiGo Speed</text><image height="27" preserveAspectRatio="xMinYMin meet" width="170" x="510" xlink:href="gopigo/setspeed.gif" y="70" /><text x="510" y="137">Increase GoPiGo Speed</text><image height="24" preserveAspectRatio="xMinYMin meet" width="180" x="510" xlink:href="gopigo/increasespeed.gif" y="147" /><text x="510" y="211">Decrease GoPiGo Speed</text><image height="24" preserveAspectRatio="xMinYMin meet" width="184" x="510" xlink:href="gopigo/decreasespeed.gif" y="221" /><text x="740" y="60">Turn GoPiGo to the Right</text><image height="24" preserveAspectRatio="xMinYMin meet" width="118" x="740" xlink:href="gopigo/right.gif" y="70" /><image height="27" preserveAspectRatio="xMinYMin meet" width="159" x="740" xlink:href="gopigo/rightX.gif" y="104" /><text x="740" y="171">Turn GoPiGo to the Left</text><image height="24" preserveAspectRatio="xMinYMin meet" width="111" x="740" xlink:href="gopigo/left.gif" y="181" /><image height="27" preserveAspectRatio="xMinYMin meet" width="152" x="740" xlink:href="gopigo/leftX.gif" y="215" /><text x="970" y="60">Turn on/off Left LED</text><image height="27" preserveAspectRatio="xMinYMin meet" width="161" x="970" xlink:href="gopigo/ledl.gif" y="70" /><image height="27" preserveAspectRatio="xMinYMin meet" width="149" x="970" xlink:href="gopigo/ledloff.gif" y="107" /><text x="970" y="174">Turn on/off Right LED</text><image height="27" preserveAspectRatio="xMinYMin meet" width="162" x="970" xlink:href="gopigo/ledr.gif" y="184" /><image height="27" preserveAspectRatio="xMinYMin meet" width="150" x="970" xlink:href="gopigo/ledroff.gif" y="221" /><rect fill="white" height="228" opacity="0.1" rx="30" stroke="black" stroke-width="1" width="1200" x="10" y="30" /><text x="50" y="288">GoPiGo Sensors</text><text x="50" y="318">Distance Sensor (A1)</text><image height="84" preserveAspectRatio="xMinYMin meet" width="178" x="50" xlink:href="gopigo/distance.gif" y="328" /><text x="50" y="452">Light Sensor (A1)</text><image height="84" preserveAspectRatio="xMinYMin meet" width="167" x="50" xlink:href="gopigo/light.gif" y="462" /><text x="50" y="586">Sound Sensor (A1)</text><image height="84" preserveAspectRatio="xMinYMin meet" width="167" x="50" xlink:href="gopigo/sound.gif" y="596" /><text x="280" y="318">Touch Sensor (D11 A1/15)</text><image height="87" preserveAspectRatio="xMinYMin meet" width="170" x="280" xlink:href="gopigo/button.gif" y="328" /><text x="280" y="455">Motion Sensor (D11)</text><image height="84" preserveAspectRatio="xMinYMin meet" width="172" x="280" xlink:href="gopigo/motion.gif" y="465" /><text x="280" y="589">Infrared Sensor (A1)</text><image height="84" preserveAspectRatio="xMinYMin meet" width="167" x="280" xlink:href="gopigo/ir.gif" y="599" /><rect fill="white" height="405" opacity="0.1" rx="30" stroke="black" stroke-width="1" width="510" x="10" y="288" /></svg>