<?xml version="1.0" encoding="utf-8" ?>
<svg baseProfile="full" height="2500px" version="1.1" width="1900px" xmlns="http://www.w3.org/2000/svg" xmlns:ev="http://www.w3.org/2001/xml-events" xmlns:xlink="http://www.w3.org/1999/xlink"><defs /><text x="50" y="30">GoPiGo3 Commands</text><text style="font-size:18px;" x="50" y="60">Move the GoPiGo3 Forward</text><image height="63" preserveAspectRatio="xMinYMin meet" width="125" x="50" xlink:href="gopigo3/forward.gif" y="70" /><text style="font-size:18px;" x="50" y="173">Move the GoPiGo Backward</text><image height="63" preserveAspectRatio="xMinYMin meet" width="133" x="50" xlink:href="gopigo3/backward.gif" y="183" /><text style="font-size:18px;" x="50" y="286">Stop the GoPiGo</text><image height="24" preserveAspectRatio="xMinYMin meet" width="108" x="50" xlink:href="gopigo3/stop.gif" y="296" /><text style="font-size:18px;" x="50" y="360">Reset the GoPiGo</text><image height="24" preserveAspectRatio="xMinYMin meet" width="112" x="50" xlink:href="gopigo3/reset.gif" y="370" /><text style="font-size:18px;" x="50" y="434">Change Speed to 300</text><image height="24" preserveAspectRatio="xMinYMin meet" width="137" x="50" xlink:href="gopigo3/speed.gif" y="444" /><text style="font-size:18px;" x="370" y="60">Turn to the right</text><image height="63" preserveAspectRatio="xMinYMin meet" width="132" x="370" xlink:href="gopigo3/right.gif" y="70" /><text style="font-size:18px;" x="370" y="173">turn to the left</text><image height="63" preserveAspectRatio="xMinYMin meet" width="126" x="370" xlink:href="gopigo3/left.gif" y="183" /><text style="font-size:18px;" x="370" y="286">turn right 90 degrees</text><image height="63" preserveAspectRatio="xMinYMin meet" width="190" x="370" xlink:href="gopigo3/right90.gif" y="296" /><text style="font-size:18px;" x="370" y="399">turn right 5 seconds</text><image height="63" preserveAspectRatio="xMinYMin meet" width="184" x="370" xlink:href="gopigo3/right5seconds.gif" y="409" /><text style="font-size:18px;" x="370" y="512">turn left for 1 robot rotation</text><image height="63" preserveAspectRatio="xMinYMin meet" width="176" x="370" xlink:href="gopigo3/left1rotation.gif" y="522" /><text style="font-size:18px;" x="690" y="60">Move Forward by 10 cm</text><image height="63" preserveAspectRatio="xMinYMin meet" width="158" x="690" xlink:href="gopigo3/forward10cm.gif" y="70" /><text style="font-size:18px;" x="690" y="173">Move Back by 10 cm</text><image height="63" preserveAspectRatio="xMinYMin meet" width="166" x="690" xlink:href="gopigo3/backward10cm.gif" y="183" /><text style="font-size:18px;" x="690" y="286">Move Forward by 10 inches</text><image height="63" preserveAspectRatio="xMinYMin meet" width="174" x="690" xlink:href="gopigo3/forward10inches.gif" y="296" /><text style="font-size:18px;" x="690" y="399">Move Back by 10 inches</text><image height="63" preserveAspectRatio="xMinYMin meet" width="182" x="690" xlink:href="gopigo3/backward10in.gif" y="409" /><text style="font-size:18px;" x="690" y="512">Move Forward by 1 wheel rotation</text><image height="63" preserveAspectRatio="xMinYMin meet" width="175" x="690" xlink:href="gopigo3/forward1rotation.gif" y="522" /><text style="font-size:18px;" x="1010" y="60">Move Forward for 10 seconds</text><image height="63" preserveAspectRatio="xMinYMin meet" width="183" x="1010" xlink:href="gopigo3/forward10seconds.gif" y="70" /><text style="font-size:18px;" x="1010" y="173">Move Backward for 1 second</text><image height="63" preserveAspectRatio="xMinYMin meet" width="179" x="1010" xlink:href="gopigo3/backward1second.gif" y="183" /><text style="font-size:18px;" x="1010" y="286">turn wheels forward by 180 degrees</text><image height="63" preserveAspectRatio="xMinYMin meet" width="189" x="1010" xlink:href="gopigo3/forward180degrees.gif" y="296" /><text style="font-size:18px;" x="1010" y="399">turn wheels back by 180 degrees</text><image height="63" preserveAspectRatio="xMinYMin meet" width="197" x="1010" xlink:href="gopigo3/backward180degrees.gif" y="409" /><text style="font-size:18px;" x="1010" y="512">Move Back by 1 wheel rotation</text><image height="63" preserveAspectRatio="xMinYMin meet" width="183" x="1010" xlink:href="gopigo3/backward1rotation.gif" y="522" /><rect fill="white" height="565" opacity="0.1" rx="30" stroke="black" stroke-width="1" width="1330" x="10" y="30" /><text x="50" y="625">GoPiGo3 LEDS</text><text style="font-size:18px;" x="50" y="655">Open Both Eyes</text><image height="63" preserveAspectRatio="xMinYMin meet" width="163" x="50" xlink:href="gopigo3/openeyes.gif" y="665" /><text style="font-size:18px;" x="50" y="768">Open Left Eye</text><image height="24" preserveAspectRatio="xMinYMin meet" width="151" x="50" xlink:href="gopigo3/openlefteye.gif" y="778" /><text style="font-size:18px;" x="50" y="842">Open Right Eye</text><image height="24" preserveAspectRatio="xMinYMin meet" width="157" x="50" xlink:href="gopigo3/openrighteye.gif" y="852" /><text style="font-size:18px;" x="350" y="655">Close Both Eyes</text><image height="24" preserveAspectRatio="xMinYMin meet" width="138" x="350" xlink:href="gopigo3/closeeyes.gif" y="665" /><text style="font-size:18px;" x="350" y="729">Close Left Eye</text><image height="24" preserveAspectRatio="xMinYMin meet" width="151" x="350" xlink:href="gopigo3/closelefteye.gif" y="739" /><text style="font-size:18px;" x="350" y="803">Close Right Eye</text><image height="24" preserveAspectRatio="xMinYMin meet" width="157" x="350" xlink:href="gopigo3/closerighteye.gif" y="813" /><text style="font-size:18px;" x="650" y="655">Set Both Eyes to red</text><image height="24" preserveAspectRatio="xMinYMin meet" width="154" x="650" xlink:href="gopigo3/botheyesred.gif" y="665" /><text style="font-size:18px;" x="650" y="729">Set Left Eye with RGB color</text><image height="24" preserveAspectRatio="xMinYMin meet" width="163" x="650" xlink:href="gopigo3/lefteyergb.gif" y="739" /><text style="font-size:18px;" x="650" y="803">Set Right Eye with HTML color</text><image height="24" preserveAspectRatio="xMinYMin meet" width="177" x="650" xlink:href="gopigo3/righteyehtml.gif" y="813" /><text style="font-size:18px;" x="950" y="655">Set Blinkers On</text><image height="24" preserveAspectRatio="xMinYMin meet" width="138" x="950" xlink:href="gopigo3/blinkerson.gif" y="665" /><text style="font-size:18px;" x="950" y="729">Set Left Blinker On</text><image height="24" preserveAspectRatio="xMinYMin meet" width="152" x="950" xlink:href="gopigo3/leftblinkeron.gif" y="739" /><text style="font-size:18px;" x="950" y="803">Set Right Blinker On</text><image height="24" preserveAspectRatio="xMinYMin meet" width="158" x="950" xlink:href="gopigo3/rightblinkeron.gif" y="813" /><text style="font-size:18px;" x="1250" y="655">Set Blinkers Off</text><image height="24" preserveAspectRatio="xMinYMin meet" width="139" x="1250" xlink:href="gopigo3/blinkersoff.gif" y="665" /><text style="font-size:18px;" x="1250" y="729">Set Left Blinker Off</text><image height="24" preserveAspectRatio="xMinYMin meet" width="153" x="1250" xlink:href="gopigo3/leftblinkeroff.gif" y="739" /><text style="font-size:18px;" x="1250" y="803">Set Right Blinker Off</text><image height="24" preserveAspectRatio="xMinYMin meet" width="159" x="1250" xlink:href="gopigo3/rightblinkeroff.gif" y="813" /><rect fill="white" height="261" opacity="0.1" rx="30" stroke="black" stroke-width="1" width="1550" x="10" y="625" /><text x="50" y="916">GoPiGo3 DexterInd Sensors</text><text style="font-size:18px;" x="50" y="946">Distance Sensor (I2C)</text><image height="68" preserveAspectRatio="xMinYMin meet" width="217" x="50" xlink:href="gopigo3/dexter_distance.gif" y="956" /><text style="font-size:18px;" x="50" y="1064">Light/Color Sensor: light (I2C)</text><image height="68" preserveAspectRatio="xMinYMin meet" width="158" x="50" xlink:href="gopigo3/light.gif" y="1074" /><text style="font-size:18px;" x="370" y="946">Light/Color Sensor: color (I2C)</text><image height="68" preserveAspectRatio="xMinYMin meet" width="161" x="370" xlink:href="gopigo3/color.gif" y="956" /><text style="font-size:18px;" x="370" y="1064">Light/Color Sensor: rgb (I2C)</text><image height="140" preserveAspectRatio="xMinYMin meet" width="256" x="370" xlink:href="gopigo3/rgb.gif" y="1074" /><text style="font-size:18px;" x="690" y="946">Line Follower Position(I2C)</text><image height="68" preserveAspectRatio="xMinYMin meet" width="194" x="690" xlink:href="gopigo3/line.gif" y="956" /><text style="font-size:18px;" x="690" y="1064">Line Follower Number (I2C)</text><image height="68" preserveAspectRatio="xMinYMin meet" width="195" x="690" xlink:href="gopigo3/linenumber.gif" y="1074" /><text style="font-size:18px;" x="1010" y="946">Line Sensors BW (I2C)</text><image height="68" preserveAspectRatio="xMinYMin meet" width="211" x="1010" xlink:href="gopigo3/linebw.gif" y="956" /><text style="font-size:18px;" x="1010" y="1064">Line Sensors number (I2C)</text><image height="68" preserveAspectRatio="xMinYMin meet" width="198" x="1010" xlink:href="gopigo3/linesensor.gif" y="1074" /><rect fill="white" height="308" opacity="0.1" rx="30" stroke="black" stroke-width="1" width="1330" x="10" y="916" /><text x="50" y="1254">GoPiGo3 Other Add-Ons</text><text style="font-size:18px;" x="50" y="1284">turn grove LED in port AD1 on</text><image height="68" preserveAspectRatio="xMinYMin meet" width="186" x="50" xlink:href="gopigo3/ledon.gif" y="1294" /><text style="font-size:18px;" x="50" y="1402">turn grove LED in port AD1 off</text><image height="68" preserveAspectRatio="xMinYMin meet" width="186" x="50" xlink:href="gopigo3/ledoff.gif" y="1412" /><text style="font-size:18px;" x="50" y="1520">set grove LED in port AD1 to 50%</text><image height="68" preserveAspectRatio="xMinYMin meet" width="186" x="50" xlink:href="gopigo3/led50.gif" y="1530" /><text style="font-size:18px;" x="370" y="1284">turn buzzer in port AD1 on</text><image height="68" preserveAspectRatio="xMinYMin meet" width="189" x="370" xlink:href="gopigo3/buzzerad1.gif" y="1294" /><text style="font-size:18px;" x="370" y="1402">turn buzzer in port AD1 off</text><image height="68" preserveAspectRatio="xMinYMin meet" width="189" x="370" xlink:href="gopigo3/buzzerAD1off.gif" y="1412" /><text style="font-size:18px;" x="370" y="1520">set buzzer in port AD1 to 90</text><image height="68" preserveAspectRatio="xMinYMin meet" width="198" x="370" xlink:href="gopigo3/buzzerad190.gif" y="1530" /><text style="font-size:18px;" x="690" y="1284">Servo 1 to 90 and Servo 2 to 45</text><image height="112" preserveAspectRatio="xMinYMin meet" width="242" x="690" xlink:href="gopigo3/servo1_servo2.gif" y="1294" /><text style="font-size:18px;" x="690" y="1446">Synchronized Servos to 90 degrees</text><image height="72" preserveAspectRatio="xMinYMin meet" width="242" x="690" xlink:href="gopigo3/servosync.gif" y="1456" /><text style="font-size:18px;" x="690" y="1568">Touch/Button Port AD1</text><image height="68" preserveAspectRatio="xMinYMin meet" width="240" x="690" xlink:href="gopigo3/button.gif" y="1578" /><text style="font-size:18px;" x="1010" y="1284">Speak out loud</text><image height="27" preserveAspectRatio="xMinYMin meet" width="240" x="1010" xlink:href="gopigo3/speak.gif" y="1294" /><text style="font-size:18px;" x="1010" y="1361">Set Photo Folder</text><image height="51" preserveAspectRatio="xMinYMin meet" width="240" x="1010" xlink:href="gopigo3/folder.gif" y="1371" /><text style="font-size:18px;" x="1010" y="1462">Take a Picture</text><image height="48" preserveAspectRatio="xMinYMin meet" width="175" x="1010" xlink:href="gopigo3/camera.gif" y="1472" /><rect fill="white" height="402" opacity="0.1" rx="30" stroke="black" stroke-width="1" width="1330" x="10" y="1254" /><text x="50" y="1686">Deprecated Sensors</text><text style="font-size:18px;" x="50" y="1716">Ultrasonic distance sensor in port AD1</text><image height="68" preserveAspectRatio="xMinYMin meet" width="205" x="50" xlink:href="gopigo3/ultrasonicdistance.gif" y="1726" /><text style="font-size:18px;" x="370" y="1716">Light sensor in port AD1</text><image height="68" preserveAspectRatio="xMinYMin meet" width="189" x="370" xlink:href="gopigo3/lightAD1.gif" y="1726" /><text style="font-size:18px;" x="690" y="1716">Humidity and Temperature (Serial port)</text><image height="72" preserveAspectRatio="xMinYMin meet" width="267" x="690" xlink:href="gopigo3/dht.gif" y="1726" /><rect fill="white" height="122" opacity="0.1" rx="30" stroke="black" stroke-width="1" width="1010" x="10" y="1686" /></svg>