<?xml version="1.0" encoding="utf-8" ?>
<svg baseProfile="full" height="1900px" version="1.1" width="1900px" xmlns="http://www.w3.org/2000/svg" xmlns:ev="http://www.w3.org/2001/xml-events" xmlns:xlink="http://www.w3.org/1999/xlink"><defs /><text x="50" y="30">GoPiGo3 Commands</text><text style="font-size:18px;" x="50" y="60">Move the GoPiGo3 Forward</text><image height="24" preserveAspectRatio="xMinYMin meet" width="125" x="50" xlink:href="gopigo3/forward.gif" y="70" /><text style="font-size:18px;" x="50" y="134">Move Forward by 20 cm</text><image height="24" preserveAspectRatio="xMinYMin meet" width="158" x="50" xlink:href="gopigo3/forward20cm.gif" y="144" /><text style="font-size:18px;" x="50" y="208">Move Forward by 10 inches</text><image height="24" preserveAspectRatio="xMinYMin meet" width="174" x="50" xlink:href="gopigo3/forward10inches.gif" y="218" /><text style="font-size:18px;" x="300" y="60">Move the GoPiGo Backward</text><image height="24" preserveAspectRatio="xMinYMin meet" width="133" x="300" xlink:href="gopigo3/backward.gif" y="70" /><text style="font-size:18px;" x="300" y="134">Move Back by 20 cm</text><image height="24" preserveAspectRatio="xMinYMin meet" width="166" x="300" xlink:href="gopigo3/backward20cm.gif" y="144" /><text style="font-size:18px;" x="300" y="208">Move Back by 10 inches</text><image height="24" preserveAspectRatio="xMinYMin meet" width="182" x="300" xlink:href="gopigo3/backward10inches.gif" y="218" /><text style="font-size:18px;" x="550" y="60">Stop the GoPiGo</text><image height="24" preserveAspectRatio="xMinYMin meet" width="108" x="550" xlink:href="gopigo3/stop.gif" y="70" /><text style="font-size:18px;" x="550" y="134">Reset the GoPiGo</text><image height="24" preserveAspectRatio="xMinYMin meet" width="112" x="550" xlink:href="gopigo3/reset.gif" y="144" /><text style="font-size:18px;" x="550" y="208">Change Speed to 300</text><image height="24" preserveAspectRatio="xMinYMin meet" width="137" x="550" xlink:href="gopigo3/speed.gif" y="218" /><rect fill="white" height="222" opacity="0.1" rx="30" stroke="black" stroke-width="1" width="800" x="10" y="30" /><text x="50" y="282">GoPiGo3 LEDS</text><text style="font-size:18px;" x="50" y="312">Open Both Eyes</text><image height="24" preserveAspectRatio="xMinYMin meet" width="138" x="50" xlink:href="gopigo3/openeyes.gif" y="322" /><text style="font-size:18px;" x="50" y="386">Open Left Eye</text><image height="24" preserveAspectRatio="xMinYMin meet" width="151" x="50" xlink:href="gopigo3/openlefteye.gif" y="396" /><text style="font-size:18px;" x="50" y="460">Open Right Eye</text><image height="24" preserveAspectRatio="xMinYMin meet" width="157" x="50" xlink:href="gopigo3/openrighteye.gif" y="470" /><text style="font-size:18px;" x="300" y="312">Close Both Eyes</text><image height="24" preserveAspectRatio="xMinYMin meet" width="138" x="300" xlink:href="gopigo3/closeeyes.gif" y="322" /><text style="font-size:18px;" x="300" y="386">Close Left Eye</text><image height="24" preserveAspectRatio="xMinYMin meet" width="151" x="300" xlink:href="gopigo3/closelefteye.gif" y="396" /><text style="font-size:18px;" x="300" y="460">Close Right Eye</text><image height="24" preserveAspectRatio="xMinYMin meet" width="157" x="300" xlink:href="gopigo3/closerighteye.gif" y="470" /><text style="font-size:18px;" x="550" y="312">Set Both Eyes to red</text><image height="24" preserveAspectRatio="xMinYMin meet" width="154" x="550" xlink:href="gopigo3/botheyesred.gif" y="322" /><text style="font-size:18px;" x="550" y="386">Set Left Eye with RGB color</text><image height="24" preserveAspectRatio="xMinYMin meet" width="163" x="550" xlink:href="gopigo3/lefteyergb.gif" y="396" /><text style="font-size:18px;" x="550" y="460">Set Right Eye with HTML color</text><image height="24" preserveAspectRatio="xMinYMin meet" width="177" x="550" xlink:href="gopigo3/righteyehtml.gif" y="470" /><text style="font-size:18px;" x="800" y="312">Set Blinkers On</text><image height="24" preserveAspectRatio="xMinYMin meet" width="138" x="800" xlink:href="gopigo3/blinkerson.gif" y="322" /><text style="font-size:18px;" x="800" y="386">Set Left Blinker On</text><image height="24" preserveAspectRatio="xMinYMin meet" width="152" x="800" xlink:href="gopigo3/leftblinkeron.gif" y="396" /><text style="font-size:18px;" x="800" y="460">Set Right Blinker On</text><image height="24" preserveAspectRatio="xMinYMin meet" width="158" x="800" xlink:href="gopigo3/rightblinkeron.gif" y="470" /><text style="font-size:18px;" x="1050" y="312">Set Blinkers Off</text><image height="24" preserveAspectRatio="xMinYMin meet" width="139" x="1050" xlink:href="gopigo3/blinkersoff.gif" y="322" /><text style="font-size:18px;" x="1050" y="386">Set Left Blinker Off</text><image height="24" preserveAspectRatio="xMinYMin meet" width="153" x="1050" xlink:href="gopigo3/leftblinkeroff.gif" y="396" /><text style="font-size:18px;" x="1050" y="460">Set Right Blinker Off</text><image height="24" preserveAspectRatio="xMinYMin meet" width="159" x="1050" xlink:href="gopigo3/rightblinkeroff.gif" y="470" /><rect fill="white" height="222" opacity="0.1" rx="30" stroke="black" stroke-width="1" width="1300" x="10" y="282" /></svg>