<?xml version="1.0" encoding="utf-8" ?>
<svg baseProfile="full" height="1900px" version="1.1" width="1900px" xmlns="http://www.w3.org/2000/svg" xmlns:ev="http://www.w3.org/2001/xml-events" xmlns:xlink="http://www.w3.org/1999/xlink"><defs /><text x="50" y="30">GoPiGo Commands</text><text style="font-size:18px;" x="50" y="60">Move the GoPiGo Forward</text><image height="60" preserveAspectRatio="xMinYMin meet" width="167" x="50" xlink:href="gopigo/forward.gif" y="70" /><text style="font-size:18px;" x="50" y="170">Move Forward by 20 ticks</text><image height="63" preserveAspectRatio="xMinYMin meet" width="179" x="50" xlink:href="gopigo/forwardX.gif" y="180" /><text style="font-size:18px;" x="50" y="283">Stop the GoPiGo</text><image height="60" preserveAspectRatio="xMinYMin meet" width="167" x="50" xlink:href="gopigo/stop.gif" y="293" /><text style="font-size:18px;" x="300" y="60">Move the GoPiGo Back</text><image height="60" preserveAspectRatio="xMinYMin meet" width="167" x="300" xlink:href="gopigo/backward.gif" y="70" /><text style="font-size:18px;" x="300" y="170">Move Back by 20 ticks</text><image height="63" preserveAspectRatio="xMinYMin meet" width="187" x="300" xlink:href="gopigo/backwardX.gif" y="180" /><text style="font-size:18px;" x="300" y="283">Set Wheel Rotation</text><image height="83" preserveAspectRatio="xMinYMin meet" width="188" x="300" xlink:href="gopigo/wheelrot.gif" y="293" /><text style="font-size:18px;" x="550" y="60">Set GoPiGo Speed</text><image height="63" preserveAspectRatio="xMinYMin meet" width="170" x="550" xlink:href="gopigo/setspeed.gif" y="70" /><text style="font-size:18px;" x="550" y="173">Increase GoPiGo Speed</text><image height="60" preserveAspectRatio="xMinYMin meet" width="180" x="550" xlink:href="gopigo/increasespeed.gif" y="183" /><text style="font-size:18px;" x="550" y="283">Decrease GoPiGo Speed</text><image height="60" preserveAspectRatio="xMinYMin meet" width="184" x="550" xlink:href="gopigo/decreasespeed.gif" y="293" /><text style="font-size:18px;" x="800" y="60">Turn GoPiGo to the Right</text><image height="60" preserveAspectRatio="xMinYMin meet" width="167" x="800" xlink:href="gopigo/right.gif" y="70" /><text style="font-size:18px;" x="800" y="170">Turn Right 90 degrees</text><image height="63" preserveAspectRatio="xMinYMin meet" width="167" x="800" xlink:href="gopigo/rightX.gif" y="180" /><text style="font-size:18px;" x="800" y="283">Turn GoPiGo to the Left</text><image height="60" preserveAspectRatio="xMinYMin meet" width="167" x="800" xlink:href="gopigo/left.gif" y="293" /><text style="font-size:18px;" x="800" y="393">Turn Left 90 degrees</text><image height="63" preserveAspectRatio="xMinYMin meet" width="167" x="800" xlink:href="gopigo/leftX.gif" y="403" /><text style="font-size:18px;" x="1050" y="60">Turn Left LED on</text><image height="63" preserveAspectRatio="xMinYMin meet" width="167" x="1050" xlink:href="gopigo/ledl.gif" y="70" /><text style="font-size:18px;" x="1050" y="173">Turn Left LED off</text><image height="63" preserveAspectRatio="xMinYMin meet" width="167" x="1050" xlink:href="gopigo/ledloff.gif" y="183" /><text style="font-size:18px;" x="1050" y="286">Turn Right LED on</text><image height="63" preserveAspectRatio="xMinYMin meet" width="167" x="1050" xlink:href="gopigo/ledr.gif" y="296" /><text style="font-size:18px;" x="1050" y="399">Turn Right LED on</text><image height="63" preserveAspectRatio="xMinYMin meet" width="167" x="1050" xlink:href="gopigo/ledroff.gif" y="409" /><rect fill="white" height="452" opacity="0.1" rx="30" stroke="black" stroke-width="1" width="1300" x="10" y="30" /><text x="50" y="512">GoPiGo Sensors</text><text style="font-size:18px;" x="50" y="542">Distance Sensor (A1)</text><image height="84" preserveAspectRatio="xMinYMin meet" width="178" x="50" xlink:href="gopigo/distance.gif" y="552" /><text style="font-size:18px;" x="50" y="676">Sound Sensor (A1)</text><image height="84" preserveAspectRatio="xMinYMin meet" width="167" x="50" xlink:href="gopigo/sound.gif" y="686" /><text style="font-size:18px;" x="50" y="810">Touch Sensor (A1)</text><image height="87" preserveAspectRatio="xMinYMin meet" width="170" x="50" xlink:href="gopigo/buttonA.gif" y="820" /><text style="font-size:18px;" x="300" y="542">Light Sensor (A1)</text><image height="84" preserveAspectRatio="xMinYMin meet" width="167" x="300" xlink:href="gopigo/light.gif" y="552" /><text style="font-size:18px;" x="300" y="676">Servo (A1)</text><image height="63" preserveAspectRatio="xMinYMin meet" width="167" x="300" xlink:href="gopigo/servo.gif" y="686" /><text style="font-size:18px;" x="300" y="789">Line Follower (I2C)</text><image height="84" preserveAspectRatio="xMinYMin meet" width="167" x="300" xlink:href="gopigo/line.gif" y="799" /><text style="font-size:18px;" x="550" y="542">Motion Sensor (D11)</text><image height="84" preserveAspectRatio="xMinYMin meet" width="172" x="550" xlink:href="gopigo/motion.gif" y="552" /><text style="font-size:18px;" x="550" y="676">Buzzer (D11)</text><image height="63" preserveAspectRatio="xMinYMin meet" width="175" x="550" xlink:href="gopigo/buzzer.gif" y="686" /><text style="font-size:18px;" x="550" y="789">Touch Sensor (D11)</text><image height="87" preserveAspectRatio="xMinYMin meet" width="170" x="550" xlink:href="gopigo/buttonD.gif" y="799" /><text style="font-size:18px;" x="800" y="542">LED Sensor (D11)</text><image height="63" preserveAspectRatio="xMinYMin meet" width="167" x="800" xlink:href="gopigo/led.gif" y="552" /><text style="font-size:18px;" x="800" y="655">Infrared Sensor (Serial)</text><image height="84" preserveAspectRatio="xMinYMin meet" width="167" x="800" xlink:href="gopigo/ir.gif" y="665" /><text style="font-size:18px;" x="800" y="789">DHT (Serial)</text><image height="108" preserveAspectRatio="xMinYMin meet" width="200" x="800" xlink:href="gopigo/dht.gif" y="799" /><text style="font-size:18px;" x="1050" y="542">Set Photo Folder</text><image height="87" preserveAspectRatio="xMinYMin meet" width="199" x="1050" xlink:href="gopigo/folder.gif" y="552" /><text style="font-size:18px;" x="1050" y="679">Take a Picture</text><image height="84" preserveAspectRatio="xMinYMin meet" width="175" x="1050" xlink:href="gopigo/camera.gif" y="689" /><text style="font-size:18px;" x="1050" y="813">Speak out loud</text><image height="66" preserveAspectRatio="xMinYMin meet" width="175" x="1050" xlink:href="gopigo/speak.gif" y="823" /><rect fill="white" height="405" opacity="0.1" rx="30" stroke="black" stroke-width="1" width="1300" x="10" y="512" /></svg>