<?xml version="1.0" encoding="utf-8" ?>
<svg baseProfile="full" height="1900px" version="1.1" width="1900px" xmlns="http://www.w3.org/2000/svg" xmlns:ev="http://www.w3.org/2001/xml-events" xmlns:xlink="http://www.w3.org/1999/xlink"><defs /><text x="50" y="30">GoPiGo Commands</text><text style="font-size:18px;" x="50" y="60">Move the GoPiGo Forward</text><image height="60" preserveAspectRatio="xMinYMin meet" width="167" x="50" xlink:href="gopigo/forward.gif" y="70" /><image height="27" preserveAspectRatio="xMinYMin meet" width="179" x="50" xlink:href="gopigo/forwardX.gif" y="180" /><text style="font-size:18px;" x="50" y="287">Stop the GoPiGo</text><image height="24" preserveAspectRatio="xMinYMin meet" width="114" x="50" xlink:href="gopigo/stop.gif" y="297" /><text style="font-size:18px;" x="280" y="60">Move the GoPiGo Back</text><image height="60" preserveAspectRatio="xMinYMin meet" width="167" x="280" xlink:href="gopigo/backward.gif" y="70" /><image height="27" preserveAspectRatio="xMinYMin meet" width="193" x="280" xlink:href="gopigo/backwardX.gif" y="140" /><text style="font-size:18px;" x="510" y="60">Set GoPiGo Speed</text><image height="27" preserveAspectRatio="xMinYMin meet" width="170" x="510" xlink:href="gopigo/setspeed.gif" y="70" /><text style="font-size:18px;" x="510" y="177">Increase GoPiGo Speed</text><image height="24" preserveAspectRatio="xMinYMin meet" width="180" x="510" xlink:href="gopigo/increasespeed.gif" y="187" /><text style="font-size:18px;" x="510" y="251">Decrease GoPiGo Speed</text><image height="24" preserveAspectRatio="xMinYMin meet" width="184" x="510" xlink:href="gopigo/decreasespeed.gif" y="261" /><text style="font-size:18px;" x="740" y="60">Turn GoPiGo to the Right</text><image height="24" preserveAspectRatio="xMinYMin meet" width="118" x="740" xlink:href="gopigo/right.gif" y="70" /><image height="27" preserveAspectRatio="xMinYMin meet" width="159" x="740" xlink:href="gopigo/rightX.gif" y="104" /><text style="font-size:18px;" x="740" y="211">Turn GoPiGo to the Left</text><image height="24" preserveAspectRatio="xMinYMin meet" width="111" x="740" xlink:href="gopigo/left.gif" y="221" /><image height="27" preserveAspectRatio="xMinYMin meet" width="152" x="740" xlink:href="gopigo/leftX.gif" y="255" /><text style="font-size:18px;" x="970" y="60">Turn on/off Left LED</text><image height="27" preserveAspectRatio="xMinYMin meet" width="161" x="970" xlink:href="gopigo/ledl.gif" y="70" /><image height="27" preserveAspectRatio="xMinYMin meet" width="149" x="970" xlink:href="gopigo/ledloff.gif" y="107" /><text style="font-size:18px;" x="970" y="174">Turn on/off Right LED</text><image height="27" preserveAspectRatio="xMinYMin meet" width="162" x="970" xlink:href="gopigo/ledr.gif" y="184" /><image height="27" preserveAspectRatio="xMinYMin meet" width="150" x="970" xlink:href="gopigo/ledroff.gif" y="221" /><rect fill="white" height="301" opacity="0.1" rx="30" stroke="black" stroke-width="1" width="1200" x="10" y="30" /><text x="50" y="361">GoPiGo Sensors</text><text style="font-size:18px;" x="50" y="391">Distance Sensor (A1)</text><image height="84" preserveAspectRatio="xMinYMin meet" width="178" x="50" xlink:href="gopigo/distance.gif" y="401" /><text style="font-size:18px;" x="50" y="525">Sound Sensor (A1)</text><image height="84" preserveAspectRatio="xMinYMin meet" width="167" x="50" xlink:href="gopigo/sound.gif" y="535" /><text style="font-size:18px;" x="50" y="659">Touch Sensor (A1)</text><image height="63" preserveAspectRatio="xMinYMin meet" width="169" x="50" xlink:href="gopigo/buttonA.gif" y="669" /><text style="font-size:18px;" x="280" y="391">Light Sensor (A1)</text><image height="84" preserveAspectRatio="xMinYMin meet" width="167" x="280" xlink:href="gopigo/light.gif" y="401" /><text style="font-size:18px;" x="280" y="525">Servo (A1)</text><image height="63" preserveAspectRatio="xMinYMin meet" width="167" x="280" xlink:href="gopigo/servo.gif" y="535" /><text style="font-size:18px;" x="510" y="391">Motion Sensor (D11)</text><image height="84" preserveAspectRatio="xMinYMin meet" width="172" x="510" xlink:href="gopigo/motion.gif" y="401" /><text style="font-size:18px;" x="510" y="525">Buzzzer (D11)</text><image height="63" preserveAspectRatio="xMinYMin meet" width="175" x="510" xlink:href="gopigo/buzzer.gif" y="535" /><text style="font-size:18px;" x="510" y="638">Touch Sensor (D11)</text><image height="63" preserveAspectRatio="xMinYMin meet" width="169" x="510" xlink:href="gopigo/buttonD.gif" y="648" /><text style="font-size:18px;" x="740" y="391">LED Sensor (D11)</text><image height="63" preserveAspectRatio="xMinYMin meet" width="167" x="740" xlink:href="gopigo/led.gif" y="401" /><text style="font-size:18px;" x="970" y="391">Infrared Sensor (Serial)</text><image height="84" preserveAspectRatio="xMinYMin meet" width="167" x="970" xlink:href="gopigo/ir.gif" y="401" /><text style="font-size:18px;" x="970" y="525">Line Follower (I2C)</text><image height="130" preserveAspectRatio="xMinYMin meet" width="167" x="970" xlink:href="gopigo/line.gif" y="535" /><rect fill="white" height="381" opacity="0.1" rx="30" stroke="black" stroke-width="1" width="1200" x="10" y="361" /></svg>