<?xml version="1.0" encoding="utf-8" ?>
<svg baseProfile="full" height="1900px" version="1.1" width="1900px" xmlns="http://www.w3.org/2000/svg" xmlns:ev="http://www.w3.org/2001/xml-events" xmlns:xlink="http://www.w3.org/1999/xlink"><defs /><text x="50" y="30">GoPiGo Commands</text><text x="50" y="60">Move the GoPiGo Forward</text><image height="60" preserveAspectRatio="xMinYMin meet" width="167" x="50" xlink:href="gopigo/forward.gif" y="70" /><image height="27" preserveAspectRatio="xMinYMin meet" width="179" x="50" xlink:href="gopigo/forwardX.gif" y="140" /><text x="50" y="207">Stop the GoPiGo</text><image height="24" preserveAspectRatio="xMinYMin meet" width="114" x="50" xlink:href="gopigo/stop.gif" y="217" /><text x="300" y="60">Move the GoPiGo Back</text><image height="60" preserveAspectRatio="xMinYMin meet" width="167" x="300" xlink:href="gopigo/backward.gif" y="70" /><image height="27" preserveAspectRatio="xMinYMin meet" width="193" x="300" xlink:href="gopigo/backwardX.gif" y="140" /><text x="550" y="60">Set GoPiGo Speed</text><image height="27" preserveAspectRatio="xMinYMin meet" width="170" x="550" xlink:href="gopigo/setspeed.gif" y="70" /><text x="550" y="137">Increase GoPiGo Speed</text><image height="24" preserveAspectRatio="xMinYMin meet" width="180" x="550" xlink:href="gopigo/increasespeed.gif" y="147" /><text x="550" y="211">Decrease GoPiGo Speed</text><image height="24" preserveAspectRatio="xMinYMin meet" width="184" x="550" xlink:href="gopigo/decreasespeed.gif" y="221" /><text x="800" y="60">Turn GoPiGo to the Right</text><image height="24" preserveAspectRatio="xMinYMin meet" width="118" x="800" xlink:href="gopigo/right.gif" y="70" /><image height="27" preserveAspectRatio="xMinYMin meet" width="159" x="800" xlink:href="gopigo/rightX.gif" y="104" /><text x="800" y="171">Turn GoPiGo to the Left</text><image height="24" preserveAspectRatio="xMinYMin meet" width="111" x="800" xlink:href="gopigo/left.gif" y="181" /><image height="27" preserveAspectRatio="xMinYMin meet" width="152" x="800" xlink:href="gopigo/leftX.gif" y="215" /><text x="1050" y="60">Turn on/off Left LED</text><image height="27" preserveAspectRatio="xMinYMin meet" width="161" x="1050" xlink:href="gopigo/ledl.gif" y="70" /><image height="27" preserveAspectRatio="xMinYMin meet" width="149" x="1050" xlink:href="gopigo/ledloff.gif" y="107" /><text x="1050" y="174">Turn on/off Right LED</text><image height="27" preserveAspectRatio="xMinYMin meet" width="162" x="1050" xlink:href="gopigo/ledr.gif" y="184" /><image height="27" preserveAspectRatio="xMinYMin meet" width="150" x="1050" xlink:href="gopigo/ledroff.gif" y="221" /><rect fill="white" height="288" opacity="0.1" rx="30" stroke="black" stroke-width="1" width="1300" x="10" y="29" /><text x="50" y="388">GoPiGo Sensors</text></svg>