<?xml version="1.0" encoding="utf-8" ?>
<svg baseProfile="full" height="1900px" version="1.1" width="1900px" xmlns="http://www.w3.org/2000/svg" xmlns:ev="http://www.w3.org/2001/xml-events" xmlns:xlink="http://www.w3.org/1999/xlink"><defs /><text x="50" y="30">GrovePi Starter Kit Commands</text><text style="font-size:18px;" x="50" y="60">Generic Analog Read</text><image height="87" preserveAspectRatio="xMinYMin meet" width="195" x="50" xlink:href="grovepi/analogRead.gif" y="70" /><text style="font-size:18px;" x="50" y="197">Generic Analog Write</text><image height="67" preserveAspectRatio="xMinYMin meet" width="238" x="50" xlink:href="grovepi/analogWrite.gif" y="207" /><text style="font-size:18px;" x="50" y="314">Generic Digital Read</text><image height="87" preserveAspectRatio="xMinYMin meet" width="191" x="50" xlink:href="grovepi/digitalRead.gif" y="324" /><text style="font-size:18px;" x="50" y="451">Generic Digital Write High</text><image height="63" preserveAspectRatio="xMinYMin meet" width="197" x="50" xlink:href="grovepi/digitalWriteHigh.gif" y="461" /><text style="font-size:18px;" x="50" y="564">Generic Digital Write Low</text><image height="63" preserveAspectRatio="xMinYMin meet" width="195" x="50" xlink:href="grovepi/digitalWriteLow.gif" y="574" /><text style="font-size:18px;" x="300" y="60">Light Sensor (A)</text><image height="87" preserveAspectRatio="xMinYMin meet" width="167" x="300" xlink:href="grovepi/light.gif" y="70" /><text style="font-size:18px;" x="300" y="197">Sound Sensor (A)</text><image height="87" preserveAspectRatio="xMinYMin meet" width="167" x="300" xlink:href="grovepi/sound.gif" y="207" /><text style="font-size:18px;" x="300" y="334">Rotary Sensor (A)</text><image height="87" preserveAspectRatio="xMinYMin meet" width="169" x="300" xlink:href="grovepi/rotary.gif" y="344" /><text style="font-size:18px;" x="300" y="471">Distance Sensor (A/D)</text><image height="87" preserveAspectRatio="xMinYMin meet" width="178" x="300" xlink:href="grovepi/distance.gif" y="481" /><text style="font-size:18px;" x="550" y="60">Touch Sensor (button) (D)</text><image height="87" preserveAspectRatio="xMinYMin meet" width="176" x="550" xlink:href="grovepi/button.gif" y="70" /><text style="font-size:18px;" x="550" y="197">Turn LED On (D)</text><image height="67" preserveAspectRatio="xMinYMin meet" width="201" x="550" xlink:href="grovepi/ledOn.gif" y="207" /><text style="font-size:18px;" x="550" y="314">Turn LED Off (D)</text><image height="67" preserveAspectRatio="xMinYMin meet" width="205" x="550" xlink:href="grovepi/ledOff.gif" y="324" /><text style="font-size:18px;" x="550" y="431">Turn Relay On (D)</text><image height="63" preserveAspectRatio="xMinYMin meet" width="167" x="550" xlink:href="grovepi/relayOn.gif" y="441" /><text style="font-size:18px;" x="550" y="544">Turn Relay Off (D)</text><image height="63" preserveAspectRatio="xMinYMin meet" width="169" x="550" xlink:href="grovepi/relayOff.gif" y="554" /><text style="font-size:18px;" x="800" y="60">DHT: Temperature (D)</text><image height="87" preserveAspectRatio="xMinYMin meet" width="167" x="800" xlink:href="grovepi/temperature.gif" y="70" /><text style="font-size:18px;" x="800" y="197">DHT: Humidity (D)</text><image height="87" preserveAspectRatio="xMinYMin meet" width="181" x="800" xlink:href="grovepi/humidity.gif" y="207" /><text style="font-size:18px;" x="800" y="334">Buzzer (PWM: D3,D5,D6,D8)</text><image height="67" preserveAspectRatio="xMinYMin meet" width="216" x="800" xlink:href="grovepi/buzzer.gif" y="344" /><text style="font-size:18px;" x="800" y="451">LED (PWM: D3,D5,D6,D8)</text><image height="67" preserveAspectRatio="xMinYMin meet" width="202" x="800" xlink:href="grovepi/ledPWM.gif" y="461" /><text style="font-size:18px;" x="1050" y="60">Set Folder for Pictures</text><image height="87" preserveAspectRatio="xMinYMin meet" width="203" x="1050" xlink:href="grovepi/folder.gif" y="70" /><text style="font-size:18px;" x="1050" y="197">Take Picture</text><image height="84" preserveAspectRatio="xMinYMin meet" width="175" x="1050" xlink:href="grovepi/picture.gif" y="207" /><text style="font-size:18px;" x="1050" y="331">Set LCD Background Color (I2C)</text><image height="67" preserveAspectRatio="xMinYMin meet" width="228" x="1050" xlink:href="grovepi/lcdCol.gif" y="341" /><text style="font-size:18px;" x="1050" y="448">Set LCD Text (I2C)</text><image height="67" preserveAspectRatio="xMinYMin meet" width="246" x="1050" xlink:href="grovepi/lcdTxt.gif" y="458" /><rect fill="white" height="617" opacity="0.1" rx="30" stroke="black" stroke-width="1" width="1300" x="10" y="30" /><text x="50" y="677">GrovePi Advanced Sensors</text><text style="font-size:18px;" x="50" y="707">Moisture (A)</text><image height="87" preserveAspectRatio="xMinYMin meet" width="167" x="50" xlink:href="grovepi/moisture.gif" y="717" /><rect fill="white" height="137" opacity="0.1" rx="30" stroke="black" stroke-width="1" width="300" x="10" y="677" /></svg>