<?xml version="1.0" encoding="utf-8" ?>
<svg baseProfile="full" height="1900px" version="1.1" width="1900px" xmlns="http://www.w3.org/2000/svg" xmlns:ev="http://www.w3.org/2001/xml-events" xmlns:xlink="http://www.w3.org/1999/xlink"><defs /><text x="50" y="30">PivotPi Servo Commands</text><text style="font-size:18px;" x="50" y="60">Pivot 1 to 0 degrees position</text><image height="63" preserveAspectRatio="xMinYMin meet" width="135" x="50" xlink:href="pivotpi/pivot10.gif" y="70" /><text style="font-size:18px;" x="50" y="173">Pivot 1 to 90 degrees position</text><image height="63" preserveAspectRatio="xMinYMin meet" width="141" x="50" xlink:href="pivotpi/pivot190.gif" y="183" /><text style="font-size:18px;" x="50" y="286">Pivot 1 to 180 degrees position</text><image height="63" preserveAspectRatio="xMinYMin meet" width="147" x="50" xlink:href="pivotpi/pivot1180.gif" y="296" /><text style="font-size:18px;" x="300" y="60">Pivot 1 to min position</text><image height="63" preserveAspectRatio="xMinYMin meet" width="157" x="300" xlink:href="pivotpi/pivot1100percent.gif" y="70" /><text style="font-size:18px;" x="300" y="173">Pivot 1 to halfway position</text><image height="63" preserveAspectRatio="xMinYMin meet" width="146" x="300" xlink:href="pivotpi/pivot50percent.gif" y="183" /><text style="font-size:18px;" x="300" y="286">Pivot 1 to maximum position</text><image height="63" preserveAspectRatio="xMinYMin meet" width="157" x="300" xlink:href="pivotpi/pivot1100percent.gif" y="296" /><rect fill="white" height="339" opacity="0.1" rx="30" stroke="black" stroke-width="1" width="550" x="10" y="30" /><text x="50" y="399">PivotPi LED Commands</text><text style="font-size:18px;" x="50" y="429">Pivot LED 1 to min value</text><image height="63" preserveAspectRatio="xMinYMin meet" width="159" x="50" xlink:href="pivotpi/pivotled0.gif" y="439" /><text style="font-size:18px;" x="50" y="542">Pivot LED 1 to max value</text><image height="63" preserveAspectRatio="xMinYMin meet" width="171" x="50" xlink:href="pivotpi/pivotled1100.gif" y="552" /><text style="font-size:18px;" x="50" y="655">Pivot LED 1 to half value</text><image height="63" preserveAspectRatio="xMinYMin meet" width="165" x="50" xlink:href="pivotpi/pivotled50.gif" y="665" /><text style="font-size:18px;" x="300" y="429">Pivot LED 1 to 0%</text><image height="63" preserveAspectRatio="xMinYMin meet" width="169" x="300" xlink:href="pivotpi/pivotled0percent.gif" y="439" /><text style="font-size:18px;" x="300" y="542">Pivot LED 1 to 100%</text><image height="63" preserveAspectRatio="xMinYMin meet" width="181" x="300" xlink:href="pivotpi/pivotled1100percent.gif" y="552" /><text style="font-size:18px;" x="300" y="655">Pivot LED 1 to 50%</text><image height="63" preserveAspectRatio="xMinYMin meet" width="175" x="300" xlink:href="pivotpi/pivotled50percent.gif" y="665" /><text style="font-size:18px;" x="550" y="429">Pivot LED OFF</text><image height="63" preserveAspectRatio="xMinYMin meet" width="173" x="550" xlink:href="pivotpi/pivotledoff.gif" y="439" /><text style="font-size:18px;" x="550" y="542">Pivot LED ON</text><image height="63" preserveAspectRatio="xMinYMin meet" width="169" x="550" xlink:href="pivotpi/pivotledon.gif" y="552" /><rect fill="white" height="339" opacity="0.1" rx="30" stroke="black" stroke-width="1" width="800" x="10" y="399" /></svg>